<svg version="1.2" xmlns="http://www.w3.org/2000/svg" viewBox="0 0 1024 1024" width="1024" height="1024">
	<style>
		.s0 { fill: #3b82f6 } 
		.s1 { fill: #ffffff } 
		.s2 { fill: #000000;stroke: #3b82f6;stroke-width: 48 } 
		.s3 { fill: #000000;stroke: #94a3b8;stroke-width: 32 } 
		.s4 { fill: #ef4444 } 
		.s5 { fill: #94a3b8 } 
	</style>
	<path fill-rule="evenodd" class="s0" d="m128 0h768c70.69 0 128 57.31 128 128v768c0 70.69-57.31 128-128 128h-768c-70.69 0-128-57.31-128-128v-768c0-70.69 57.31-128 128-128z"/>
	<path fill-rule="evenodd" class="s1" d="m160 128h704c35.35 0 64 28.65 64 64v640c0 35.35-28.65 64-64 64h-704c-35.35 0-64-28.65-64-64v-640c0-35.35 28.65-64 64-64z"/>
	<g id="Text">
		<path fill-rule="evenodd" class="s2" d="m192 320h640"/>
		<path fill-rule="evenodd" class="s3" d="m192 448h544"/>
	</g>
	<g id="Hearts">
		<path id="FH" class="s4" d="m762.92 655.98l49.06 52.21c2.04 2.17 4.72 3.37 7.52 3.37 2.8 0 5.48-1.2 7.52-3.37l49.06-52.21c8.25-8.76 12.92-21.04 12.92-33.89v-1.79c0-21.63-13.71-40.08-32.42-43.64-12.37-2.35-24.97 2.26-33.82 12.35l-3.26 3.72-3.26-3.72c-8.85-10.09-21.45-14.7-33.82-12.35-18.71 3.56-32.42 22.01-32.42 43.64v1.79c0 12.85 4.67 25.13 12.92 33.89z"/>
		<path id="HH" fill-rule="evenodd" class="s5" d="m351.43 707.88l-0.67-0.72-46.89-50.41c-8.21-8.84-12.87-21.23-12.87-34.21v-1.03c0-21.81 13.38-40.53 31.9-44.62 10.55-2.35 21.33 0.47 29.92 7.47q3.63 2.97 6.69 6.91 1.69-2.22 3.62-4.12 1.47-1.49 3.07-2.79c8.59-7 19.38-9.82 29.92-7.5 18.52 4.09 31.91 22.84 31.91 44.65v1.03c0 12.98-4.66 25.37-12.88 34.21l-46.89 50.41-0.67 0.72c-2.19 2.35-5.08 3.68-8.08 3.68-2.99 0-5.89-1.3-8.08-3.68zm3.56-100.16q-0.15-0.14-0.27-0.34l-4.76-6.19-0.03-0.03c-6.18-8.03-15.52-11.69-24.62-9.67-12.47 2.76-21.46 15.34-21.46 30.02v1.03c0 8.83 3.18 17.29 8.77 23.3l46.89 50.41 46.89-50.41c5.59-6.01 8.78-14.47 8.78-23.3v-1.03c0-14.65-8.99-27.26-21.44-30.02-9.1-2.02-18.46 1.67-24.62 9.67q0.01-0.01-0.03 0.03c-0.02 0.03 0 0-0.02 0.03l-4.77 6.19c-0.08 0.13-0.18 0.22-0.26 0.35-1.21 1.39-2.84 2.16-4.53 2.16-1.68 0-3.32-0.77-4.52-2.2z"/>
		<path id="HH copy" fill-rule="evenodd" class="s5" d="m504.43 707.88l-0.67-0.72-46.89-50.41c-8.21-8.84-12.87-21.23-12.87-34.21v-1.03c0-21.81 13.38-40.53 31.9-44.62 10.55-2.35 21.33 0.47 29.92 7.47q3.63 2.97 6.69 6.91 1.69-2.22 3.62-4.12 1.47-1.49 3.07-2.79c8.59-7 19.38-9.82 29.92-7.5 18.52 4.09 31.91 22.84 31.91 44.65v1.03c0 12.98-4.66 25.37-12.88 34.21l-46.89 50.41-0.67 0.72c-2.19 2.35-5.08 3.68-8.08 3.68-2.99 0-5.89-1.3-8.08-3.68zm3.56-100.16q-0.15-0.14-0.27-0.34l-4.76-6.19-0.03-0.03c-6.18-8.03-15.52-11.69-24.62-9.67-12.47 2.76-21.46 15.34-21.46 30.02v1.03c0 8.83 3.18 17.29 8.77 23.3l46.89 50.41 46.89-50.41c5.59-6.01 8.78-14.47 8.78-23.3v-1.03c0-14.65-8.99-27.26-21.44-30.02-9.1-2.02-18.46 1.67-24.62 9.67q0.01-0.01-0.03 0.03c-0.02 0.03 0 0-0.02 0.03l-4.77 6.19c-0.08 0.13-0.18 0.22-0.26 0.35-1.21 1.39-2.84 2.16-4.53 2.16-1.68 0-3.32-0.77-4.52-2.2z"/>
		<path id="HH copy 2" fill-rule="evenodd" class="s5" d="m658.43 707.88l-0.67-0.72-46.89-50.41c-8.21-8.84-12.87-21.23-12.87-34.21v-1.03c0-21.81 13.38-40.53 31.9-44.62 10.55-2.35 21.33 0.47 29.92 7.47q3.63 2.97 6.69 6.91 1.69-2.22 3.62-4.12 1.47-1.49 3.07-2.79c8.59-7 19.38-9.82 29.92-7.5 18.52 4.09 31.91 22.84 31.91 44.65v1.03c0 12.98-4.66 25.37-12.88 34.21l-46.89 50.41-0.67 0.72c-2.19 2.35-5.08 3.68-8.08 3.68-2.99 0-5.89-1.3-8.08-3.68zm3.56-100.16q-0.15-0.14-0.27-0.34l-4.76-6.19-0.03-0.03c-6.18-8.03-15.52-11.69-24.62-9.67-12.47 2.76-21.46 15.34-21.46 30.02v1.03c0 8.83 3.18 17.29 8.77 23.3l46.89 50.41 46.89-50.41c5.59-6.01 8.78-14.47 8.78-23.3v-1.03c0-14.65-8.99-27.26-21.44-30.02-9.1-2.02-18.46 1.67-24.62 9.67q0.01-0.01-0.03 0.03c-0.02 0.03 0 0-0.02 0.03l-4.77 6.19c-0.08 0.13-0.18 0.22-0.26 0.35-1.21 1.39-2.84 2.16-4.53 2.16-1.68 0-3.32-0.77-4.52-2.2z"/>
		<path id="BH" class="s0" d="m167.85 576.67c6.22-1.21 12.49-0.59 18.31 1.64l13.28 23.98-20.11 23.34c-0.4 0.46-0.64 1.11-0.62 1.79 0.03 0.68 0.27 1.3 0.7 1.76l29.88 32.19c0.77 0.83 1.97 0.9 2.8 0.09 0.83-0.8 1.01-2.17 0.45-3.22l-16.11-30.36 24.2-23.39c0.69-0.65 0.93-1.76 0.64-2.72l-6.09-19.62c7.61-5.17 16.65-7.18 25.53-5.45 18.41 3.53 31.89 21.97 31.89 43.6v1.8c0 12.84-4.59 25.13-12.7 33.88l-48.21 52.21c-2 2.17-4.64 3.37-7.39 3.37-2.75 0-5.39-1.2-7.39-3.37l-48.21-52.21c-8.11-8.75-12.7-21.04-12.7-33.88v-1.8c0-21.63 13.47-40.07 31.85-43.63z"/>
	</g>
</svg>